<svg xmlns="http://www.w3.org/2000/svg" width="577" height="1144" viewBox="0 0 577 1144">
  <g id="Group_1368" data-name="Group 1368" transform="translate(-680 -481)">
    <g id="Group_1362" data-name="Group 1362" transform="translate(580 238)">
      <g id="Group_1318" data-name="Group 1318" transform="translate(60 18.326)">
        <g id="Group_1287" data-name="Group 1287" transform="translate(-188 91.674)">
          <text id="_01._Research" data-name="01. Research" transform="translate(388 209)" fill="#db8521" font-size="72" font-family="Lato-Bold, Lato" font-weight="700"><tspan x="0" y="0">01.</tspan><tspan y="0" xml:space="preserve" font-size="56"> Research</tspan></text>
          <rect id="Rectangle_1140" data-name="Rectangle 1140" width="90" height="10" transform="translate(388 220)" fill="#33332f"/>
        </g>
      </g>
      <g id="Group_1317" data-name="Group 1317" transform="translate(-100 -24)">
        <circle id="Ellipse_82" data-name="Ellipse 82" cx="70" cy="70" r="70" transform="translate(200 267)" fill="#db8521"/>
        <g id="XMLID_34_" transform="translate(222.425 289.892)">
          <g id="XMLID_1873_" transform="translate(0 0)">
            <path id="XMLID_1877_" d="M220.194,52.349a24.543,24.543,0,1,0,24.543,24.543A24.57,24.57,0,0,0,220.194,52.349Zm0,3.719A20.824,20.824,0,1,1,199.37,76.892,20.848,20.848,0,0,1,220.194,56.068Z" transform="translate(-159.274 -42.616)" fill="#fff"/>
            <path id="XMLID_1878_" d="M286.985,102.852a1.859,1.859,0,1,1-2.629,2.629,12.306,12.306,0,0,0-17.4,0,1.859,1.859,0,0,1-2.629-2.629,16.024,16.024,0,0,1,22.663,0Z" transform="translate(-214.734 -79.908)" fill="#fff"/>
            <path id="XMLID_1881_" d="M0,92.026a7.858,7.858,0,0,0,13.414,5.556L35.755,75.242a6.669,6.669,0,0,0,8.034-1.059l3.689-3.689A34.279,34.279,0,1,0,69.691,5.822a1.859,1.859,0,1,0-.949,3.6,30.557,30.557,0,1,1-15.645,0,1.859,1.859,0,1,0-.949-3.6A34.28,34.28,0,0,0,29.391,52.406L25.7,56.095a6.669,6.669,0,0,0-1.059,8.034L2.3,86.47A7.806,7.806,0,0,0,0,92.027ZM37,71.553l-8.672-8.672a2.943,2.943,0,0,1,0-4.157l2.807-2.807A34.53,34.53,0,0,0,43.967,68.746L41.16,71.553A2.943,2.943,0,0,1,37,71.553ZM3.719,92.026A4.112,4.112,0,0,1,4.931,89.1l22.18-22.18,5.854,5.854-22.18,22.18a4.139,4.139,0,0,1-7.066-2.927Z" transform="translate(0 -4.689)" fill="#fff"/>
            <path id="XMLID_1884_" d="M319.509,3.719a1.86,1.86,0,0,1-1.859-1.859,1.859,1.859,0,1,1,3.174,1.315A1.873,1.873,0,0,1,319.509,3.719Z" transform="translate(-258.59 0)" fill="#fff"/>
          </g>
        </g>
      </g>
    </g>
    <g id="Group_1361" data-name="Group 1361" transform="translate(-81 438)">
      <g id="Group_1330" data-name="Group 1330" transform="translate(-208 -1)">
        <g id="Group_1321" data-name="Group 1321" transform="translate(296 -410)">
          <g id="Group_1320" data-name="Group 1320" transform="translate(673 654)">
            <circle id="Ellipse_82-2" data-name="Ellipse 82" cx="70" cy="70" r="70" fill="#db8521"/>
          </g>
          <g id="aim" transform="translate(675 656)">
            <path id="Path_1203" data-name="Path 1203" d="M61.841,114.692a52.841,52.841,0,1,1,52.841-52.841,52.313,52.313,0,0,1-5.244,22.978,1.887,1.887,0,0,1-3.4-1.646,48.515,48.515,0,0,0,4.867-21.333,49.067,49.067,0,1,0-49.067,49.067,48.425,48.425,0,0,0,22.622-5.524,1.888,1.888,0,0,1,1.748,3.348,52.184,52.184,0,0,1-24.369,5.95Z" transform="translate(6.585 6.575)" fill="#fff"/>
            <path id="Path_1204" data-name="Path 1204" d="M56.427,62.958a2.226,2.226,0,0,1-1.481-3.89,45,45,0,0,0,4.348-4.437,2.23,2.23,0,1,1,3.393,2.894,50.219,50.219,0,0,1-4.78,4.871,2.226,2.226,0,0,1-1.481.561Z" transform="translate(46.982 46.624)" fill="#fff"/>
            <path id="Path_1205" data-name="Path 1205" d="M49.576,80.163A30.576,30.576,0,1,1,80.153,49.586,30.576,30.576,0,0,1,49.576,80.163Zm0-57.755A27.179,27.179,0,1,0,76.755,49.586,27.179,27.179,0,0,0,49.576,22.407Z" transform="translate(18.85 18.84)" fill="#fff"/>
            <path id="Path_1206" data-name="Path 1206" d="M38.226,138.862A2.1,2.1,0,0,1,36,136.907V3.965a2.245,2.245,0,0,1,4.453,0V136.907A2.1,2.1,0,0,1,38.226,138.862Z" transform="translate(30.2 -2.01)" fill="#fff"/>
            <path id="Path_1207" data-name="Path 1207" d="M136.9,40.463H3.955a2.245,2.245,0,0,1,0-4.453H136.9a2.245,2.245,0,0,1,0,4.453Z" transform="translate(-2 30.19)" fill="#fff"/>
          </g>
        </g>
        <g id="Group_1319" data-name="Group 1319" transform="translate(194 -15.853)">
          <g id="Group_1288" data-name="Group 1288" transform="translate(93 126.853)">
            <text id="_02._Definition" data-name="02. Definition" transform="translate(842 209)" fill="#db8521" font-size="72" font-family="Lato-Bold, Lato" font-weight="700"><tspan x="0" y="0">02.</tspan><tspan y="0" xml:space="preserve" font-size="56"> Definition</tspan></text>
            <rect id="Rectangle_1141" data-name="Rectangle 1141" width="90" height="10" transform="translate(842 220)" fill="#33332f"/>
          </g>
        </g>
      </g>
    </g>
    <g id="Group_1363" data-name="Group 1363" transform="translate(-661 657)">
      <g id="Group_1327" data-name="Group 1327" transform="translate(1141 -322)">
        <g id="Group_1322" data-name="Group 1322" transform="translate(-235 -184.893)">
          <circle id="Ellipse_82-3" data-name="Ellipse 82" cx="70" cy="70" r="70" transform="translate(435 730.893)" fill="#db8521"/>
          <g id="light-bulb" transform="translate(455.081 739.033)">
            <g id="Group_1310" data-name="Group 1310" transform="translate(0)">
              <g id="Group_1309" data-name="Group 1309">
                <path id="Path_1208" data-name="Path 1208" d="M234.03,12.163a2.027,2.027,0,0,0,2.027-2.027V2.027a2.027,2.027,0,0,0-4.054,0v8.109A2.027,2.027,0,0,0,234.03,12.163Z" transform="translate(-184.378)" fill="#fff"/>
                <path id="Path_1209" data-name="Path 1209" d="M140.254,27.661l4.054,7.02a2.027,2.027,0,0,0,3.525-2l-.013-.023-4.054-7.02a2.027,2.027,0,1,0-3.525,2Z" transform="translate(-116.147 -18.372)" fill="#fff"/>
                <path id="Path_1210" data-name="Path 1210" d="M73.614,95.749l.023.013,7.02,4.054a2.027,2.027,0,1,0,2.05-3.5l-.023-.013-7.02-4.054a2.027,2.027,0,0,0-2.05,3.5Z" transform="translate(-66.376 -68.256)" fill="#fff"/>
                <path id="Path_1211" data-name="Path 1211" d="M60.166,186.027A2.027,2.027,0,0,0,58.139,184H50.03a2.027,2.027,0,1,0,0,4.054h8.109A2.027,2.027,0,0,0,60.166,186.027Z" transform="translate(-48.003 -136.582)" fill="#fff"/>
                <path id="Path_1212" data-name="Path 1212" d="M80.68,260.237l-.024.014-7.02,4.054a2.027,2.027,0,1,0,2,3.525l.024-.014,7.02-4.054a2.027,2.027,0,1,0-2-3.525Z" transform="translate(-66.375 -192.935)" fill="#fff"/>
                <path id="Path_1213" data-name="Path 1213" d="M373.691,264.319l-.024-.014-7.02-4.054a2.027,2.027,0,1,0-2.051,3.5l.024.014,7.02,4.054a2.027,2.027,0,1,0,2.051-3.5Z" transform="translate(-281.624 -192.935)" fill="#fff"/>
                <path id="Path_1214" data-name="Path 1214" d="M394.139,184H386.03a2.027,2.027,0,0,0,0,4.054h8.109a2.027,2.027,0,1,0,0-4.054Z" transform="translate(-296.861 -136.582)" fill="#fff"/>
                <path id="Path_1215" data-name="Path 1215" d="M365.677,100.088a2.028,2.028,0,0,0,1.014-.272l7.02-4.054a2.027,2.027,0,0,0-2-3.525l-.023.013-7.02,4.054a2.027,2.027,0,0,0,1.014,3.783Z" transform="translate(-281.665 -68.256)" fill="#fff"/>
                <path id="Path_1216" data-name="Path 1216" d="M309.01,35.424h0a2.027,2.027,0,0,0,2.769-.743h0l4.054-7.02a2.027,2.027,0,0,0-3.5-2.051l-.014.024-4.054,7.02A2.028,2.028,0,0,0,309.01,35.424Z" transform="translate(-240.638 -18.372)" fill="#fff"/>
                <path id="Path_1217" data-name="Path 1217" d="M190.3,200.544a2.027,2.027,0,0,0,2.027-2.027v-22.3h4.054a8.109,8.109,0,1,0-8.109-8.109v4.054H184.22v-4.054a8.109,8.109,0,1,0-8.109,8.109h4.054v22.3a2.027,2.027,0,0,0,4.054,0v-22.3h4.054v22.3A2.027,2.027,0,0,0,190.3,200.544Zm2.027-32.435a4.054,4.054,0,1,1,4.054,4.054h-4.054Zm-12.163,4.054h-4.054a4.054,4.054,0,1,1,4.054-4.054Z" transform="translate(-136.595 -118.456)" fill="#fff"/>
                <path id="Path_1218" data-name="Path 1218" d="M147.116,64.041a33.289,33.289,0,0,0-35,31.426A32.886,32.886,0,0,0,124.3,122.6a6.132,6.132,0,0,1,2.386,4.724v4.844a6.2,6.2,0,0,0,4.179,5.817v2.446a6.118,6.118,0,0,0,1.63,4.131,6.051,6.051,0,0,0,0,8.263,6.12,6.12,0,0,0,.4,8.716,6.284,6.284,0,0,0,4.234,1.612,2.027,2.027,0,0,0,2.09-1.961,2,2,0,0,0-.372-1.214,2.188,2.188,0,0,0-.234-.357,2.162,2.162,0,0,0-.581-.376c-.061-.031-.121-.056-.184-.081a2.239,2.239,0,0,0-.658-.13c-.021,0-.04-.012-.061-.012a2.066,2.066,0,1,1,0-4.131h8.359a2.066,2.066,0,1,0,0-4.131h-8.359a2.066,2.066,0,1,1,0-4.131h8.359a2.066,2.066,0,1,0,0-4.131h-8.359a2.078,2.078,0,0,1-2.09-2.066v-2.066h10.449a2.066,2.066,0,1,0,0-4.131H132.954a2.078,2.078,0,0,1-2.09-2.066v-4.844a10.226,10.226,0,0,0-3.918-7.922,28.692,28.692,0,0,1-4.027-40.7,29.306,29.306,0,0,1,51.828,18.178,28.623,28.623,0,0,1-10.856,22.646,10.192,10.192,0,0,0-3.772,8.042v4.6a2.078,2.078,0,0,1-2.09,2.066h-6.269a2.066,2.066,0,1,0,0,4.131h4.179v2.066a2.078,2.078,0,0,1-2.09,2.066h-2.09a2.066,2.066,0,1,0,0,4.131h2.09a2.066,2.066,0,1,1,0,4.131h-2.09a2.066,2.066,0,1,0,0,4.131h2.09a2.066,2.066,0,1,1,0,4.131H143.4a2.066,2.066,0,1,0,0,4.131h8a6.3,6.3,0,0,1-10.6,2.051,2.107,2.107,0,0,0-2.951-.169,2.049,2.049,0,0,0-.171,2.917,10.511,10.511,0,0,0,14.718.868,10.274,10.274,0,0,0,3.36-5.993,6.1,6.1,0,0,0,2.727-10,6.051,6.051,0,0,0,0-8.263,6.118,6.118,0,0,0,1.63-4.131v-2.446a6.2,6.2,0,0,0,4.179-5.817v-4.6a6.18,6.18,0,0,1,2.217-4.827,32.71,32.71,0,0,0,12.411-25.891A33.611,33.611,0,0,0,147.116,64.041Z" transform="translate(-95.84 -47.784)" fill="#fff"/>
              </g>
            </g>
          </g>
        </g>
        <g id="Group_1323" data-name="Group 1323" transform="translate(-728 -228.31)">
          <g id="Group_1289" data-name="Group 1289" transform="translate(-208 641.31)">
            <text id="_03._Ideation" data-name="03. Ideation" transform="translate(1296 209)" fill="#db8521" font-size="72" font-family="Lato-Bold, Lato" font-weight="700"><tspan x="0" y="0">03.</tspan><tspan y="0" xml:space="preserve" font-size="56"> Ideation</tspan></text>
            <rect id="Rectangle_1142" data-name="Rectangle 1142" width="90" height="10" transform="translate(1296 220)" fill="#33332f"/>
          </g>
        </g>
      </g>
    </g>
    <g id="Group_1326" data-name="Group 1326" transform="translate(-172 535)">
      <g id="Group_1324" data-name="Group 1324" transform="translate(36 -30.808)">
        <circle id="Ellipse_82-4" data-name="Ellipse 82" cx="70" cy="70" r="70" transform="translate(816 576.808)" fill="#db8521"/>
        <g id="prototyping" transform="translate(838.132 598.592)">
          <path id="Path_1219" data-name="Path 1219" d="M66,219.727h9.559a1.408,1.408,0,1,0,0-2.815H66a1.408,1.408,0,1,0,0,2.815Z" transform="translate(-52.478 -176.2)" fill="#fff"/>
          <path id="Path_1220" data-name="Path 1220" d="M94.708,39.884a1.408,1.408,0,0,0,1.408-1.408V7.038A7.046,7.046,0,0,0,89.078,0H76.42a1.408,1.408,0,0,0,0,2.815H89.078A4.228,4.228,0,0,1,93.3,7.038v3.695H62.532V7.038a4.228,4.228,0,0,1,4.223-4.223h3.1a1.408,1.408,0,1,0,0-2.815h-3.1a7.046,7.046,0,0,0-7.038,7.038v21.3H57.37A10.8,10.8,0,0,0,46.578,39.133V56.4A7.986,7.986,0,0,1,38.6,64.377h-1.8V42.7a7.046,7.046,0,0,0-7.038-7.038H7.07A7.046,7.046,0,0,0,.032,42.7V89.058A7.046,7.046,0,0,0,7.07,96.1H8.1a1.408,1.408,0,1,0,0-2.815H7.07a4.228,4.228,0,0,1-4.223-4.223V86.742H33.991v2.316a4.228,4.228,0,0,1-4.223,4.223h-15.1a1.408,1.408,0,1,0,0,2.815h15.1a7.046,7.046,0,0,0,7.038-7.038V67.192h1.8A10.8,10.8,0,0,0,49.394,56.4V39.133a7.986,7.986,0,0,1,7.977-7.977h2.346V53.772a7.046,7.046,0,0,0,7.038,7.038H89.078a7.046,7.046,0,0,0,7.038-7.038V45.045a1.408,1.408,0,0,0-2.815,0v3.536H62.532V31.156h11.9l-2.571,2.571a1.408,1.408,0,0,0,1.991,1.991l4.974-4.974a1.418,1.418,0,0,0,0-1.991L73.85,23.779a1.408,1.408,0,0,0-1.991,1.991l2.571,2.571h-11.9V13.548H93.3V38.476A1.407,1.407,0,0,0,94.708,39.884ZM7.07,38.476h22.7A4.228,4.228,0,0,1,33.991,42.7v3.625H2.847V42.7A4.228,4.228,0,0,1,7.07,38.476ZM33.991,83.927H2.847V49.139H33.991V64.377H26.6a4.417,4.417,0,0,0-4.332-3.584H21.8a1.408,1.408,0,0,0,0,2.815h.469a1.6,1.6,0,0,1,1.6,1.6v1.162a1.6,1.6,0,0,1-1.6,1.6H14.39a1.6,1.6,0,0,1-1.6-1.6V65.2a1.6,1.6,0,0,1,1.6-1.6h.9a1.408,1.408,0,0,0,0-2.815h-.9A4.416,4.416,0,0,0,9.979,65.2v1.162a4.416,4.416,0,0,0,4.411,4.411h7.883A4.417,4.417,0,0,0,26.6,67.192h7.387ZM93.3,51.4v2.376A4.228,4.228,0,0,1,89.078,58H66.755a4.228,4.228,0,0,1-4.223-4.223V51.4Z" transform="translate(-0.032 0)" fill="#fff"/>
          <path id="Path_1221" data-name="Path 1221" d="M383.291,29.9h9.453a1.408,1.408,0,1,0,0-2.815h-9.453a1.408,1.408,0,0,0,0,2.815Z" transform="translate(-310.214 -22.004)" fill="#fff"/>
        </g>
      </g>
      <g id="Group_1325" data-name="Group 1325" transform="translate(-60 -188.876)">
        <g id="Group_1286" data-name="Group 1286" transform="translate(674 128.876)">
          <text id="_04._Prototyping" data-name="04. Prototyping" transform="translate(398 682)" fill="#db8521" font-size="72" font-family="Lato-Bold, Lato" font-weight="700"><tspan x="0" y="0">04. </tspan><tspan y="0" font-size="56">Prototyping</tspan></text>
          <rect id="Rectangle_1143" data-name="Rectangle 1143" width="90" height="10" transform="translate(398 693)" fill="#33332f"/>
        </g>
      </g>
    </g>
    <g id="Group_1365" data-name="Group 1365" transform="translate(-81 460)">
      <g id="Group_1331" data-name="Group 1331" transform="translate(474 -28)">
        <g id="Group_1328" data-name="Group 1328" transform="translate(-595 -5.06)">
          <circle id="Ellipse_82-5" data-name="Ellipse 82" cx="70" cy="70" r="70" transform="translate(882 854.059)" fill="#db8521"/>
          <g id="test" transform="translate(913.964 878.409)">
            <g id="Group_1313" data-name="Group 1313" transform="translate(0 0)">
              <path id="Path_1222" data-name="Path 1222" d="M77.753,411.907H51.983a1.982,1.982,0,0,0,0,3.965h25.77a1.982,1.982,0,0,0,0-3.965Z" transform="translate(-40.089 -335.408)" fill="#fff"/>
              <path id="Path_1223" data-name="Path 1223" d="M51.983,374.4H64.868a1.982,1.982,0,1,0,0-3.965H51.983a1.982,1.982,0,1,0,0,3.965Z" transform="translate(-40.089 -302.154)" fill="#fff"/>
              <path id="Path_1224" data-name="Path 1224" d="M77.753,328.955H51.983a1.982,1.982,0,1,0,0,3.965h25.77a1.982,1.982,0,1,0,0-3.965Z" transform="translate(-40.089 -268.9)" fill="#fff"/>
              <path id="Path_1225" data-name="Path 1225" d="M51.983,291.444H64.868a1.982,1.982,0,1,0,0-3.965H51.983a1.982,1.982,0,1,0,0,3.965Z" transform="translate(-40.089 -235.646)" fill="#fff"/>
              <path id="Path_1226" data-name="Path 1226" d="M77.753,246H51.983a1.982,1.982,0,0,0,0,3.965h25.77a1.982,1.982,0,1,0,0-3.965Z" transform="translate(-40.089 -202.391)" fill="#fff"/>
              <path id="Path_1227" data-name="Path 1227" d="M51.983,208.491H64.868a1.982,1.982,0,1,0,0-3.965H51.983a1.982,1.982,0,1,0,0,3.965Z" transform="translate(-40.089 -169.137)" fill="#fff"/>
              <path id="Path_1228" data-name="Path 1228" d="M113.836,163.05H96.987a1.982,1.982,0,1,0,0,3.965h16.849a1.982,1.982,0,0,0,0-3.965Z" transform="translate(-76.172 -135.883)" fill="#fff"/>
              <path id="Path_1229" data-name="Path 1229" d="M66.851,123.556a1.982,1.982,0,0,0-1.982-1.982H51.983a1.982,1.982,0,1,0,0,3.965H64.868A1.982,1.982,0,0,0,66.851,123.556Z" transform="translate(-40.089 -102.628)" fill="#fff"/>
              <path id="Path_1230" data-name="Path 1230" d="M77.753,80.1H51.983a1.982,1.982,0,1,0,0,3.965h25.77a1.982,1.982,0,1,0,0-3.965Z" transform="translate(-40.089 -69.374)" fill="#fff"/>
              <path id="Path_1231" data-name="Path 1231" d="M242.475,91.7a1.982,1.982,0,0,0,2.8,0l8.222-8.222a1.982,1.982,0,1,0-2.8-2.8l-6.82,6.82-2.709-2.709a1.982,1.982,0,0,0-2.8,2.8Z" transform="translate(-190.647 -69.373)" fill="#fff"/>
              <path id="Path_1232" data-name="Path 1232" d="M100.3,57.9l-2.616-2.616a4.1,4.1,0,0,0-5.794,0l-5.355,5.355A1.981,1.981,0,0,0,83.8,63.367l-12.44,12.44V29.967A3.969,3.969,0,0,0,67.4,26H3.965A3.969,3.969,0,0,0,0,29.967v83.258a3.969,3.969,0,0,0,3.965,3.965H67.4a3.969,3.969,0,0,0,3.965-3.965v-20.6L92.215,71.777a1.981,1.981,0,0,0,2.729-2.729l5.355-5.355a4.1,4.1,0,0,0,0-5.794ZM59.329,99.056l-4.673,1.869,1.869-4.673L86.57,66.208l2.8,2.8Zm8.07,14.169H3.965V29.967H67.4V79.772L53.434,93.737A1.982,1.982,0,0,0,53,94.4l-3.738,9.345a1.982,1.982,0,0,0,2.577,2.577l9.345-3.738a1.986,1.986,0,0,0,.665-.439L67.4,96.593Zm30.1-52.335-5.318,5.318-2.8-2.8,5.318-5.317a.139.139,0,0,1,.187,0L97.495,60.7A.139.139,0,0,1,97.495,60.89Z" transform="translate(0 -26.002)" fill="#fff"/>
              <path id="Path_1233" data-name="Path 1233" d="M242.474,174.654a1.982,1.982,0,0,0,2.8,0l8.222-8.222a1.982,1.982,0,0,0-2.8-2.8l-6.82,6.82-2.709-2.709a1.982,1.982,0,0,0-2.8,2.8Z" transform="translate(-190.646 -135.881)" fill="#fff"/>
              <path id="Path_1234" data-name="Path 1234" d="M243.877,258.188a1.976,1.976,0,0,0,1.4-.581l8.222-8.222a1.982,1.982,0,1,0-2.8-2.8l-6.82,6.82-2.709-2.709a1.982,1.982,0,0,0-2.8,2.8l4.111,4.111A1.976,1.976,0,0,0,243.877,258.188Z" transform="translate(-190.647 -202.39)" fill="#fff"/>
              <path id="Path_1235" data-name="Path 1235" d="M51.987,163.05a1.982,1.982,0,1,0,1.984,1.982,1.982,1.982,0,0,0-1.984-1.982Z" transform="translate(-40.092 -135.883)" fill="#fff"/>
            </g>
          </g>
        </g>
        <g id="Group_1329" data-name="Group 1329" transform="translate(87 0.636)">
          <g id="Group_1285" data-name="Group 1285" transform="translate(-487 242.364)">
            <text id="_05._Testing" data-name="05. Testing" transform="translate(847 682)" fill="#db8521" font-size="72" font-family="Lato-Bold, Lato" font-weight="700"><tspan x="0" y="0">05.</tspan><tspan y="0" xml:space="preserve" font-size="56"> Testing</tspan></text>
            <rect id="Rectangle_1144" data-name="Rectangle 1144" width="90" height="10" transform="translate(847 693)" fill="#33332f"/>
          </g>
        </g>
      </g>
    </g>
    <g id="Group_1367" data-name="Group 1367" transform="translate(-567 660)">
      <g id="Group_1329-2" data-name="Group 1329" transform="translate(1047 -27.364)">
        <g id="Group_1285-2" data-name="Group 1285" transform="translate(-487 242.364)">
          <text id="_06._Summary" data-name="06. Summary" transform="translate(847 682)" fill="#db8521" font-size="72" font-family="Lato-Bold, Lato" font-weight="700"><tspan x="0" y="0">06.</tspan><tspan y="0" xml:space="preserve" font-size="56"> Summary</tspan></text>
          <rect id="Rectangle_1144-2" data-name="Rectangle 1144" width="90" height="10" transform="translate(847 693)" fill="#33332f"/>
        </g>
      </g>
      <g id="Group_1366" data-name="Group 1366">
        <circle id="Ellipse_82-6" data-name="Ellipse 82" cx="70" cy="70" r="70" transform="translate(1247 825)" fill="#db8521"/>
        <path id="Path_1236" data-name="Path 1236" d="M0,89.631a9,9,0,0,0,9.2,8.716H63.237a9.035,9.035,0,0,0,9.007-7.255,8.866,8.866,0,0,0,7.662-8.605V43.225H84.3a1.571,1.571,0,0,0,.865-.239L93.2,37.768a1.58,1.58,0,0,0,0-2.653l-8.033-5.271a1.631,1.631,0,0,0-.865-.3H79.907V20.891a1.964,1.964,0,0,0-.7-1.365L60.915.9a1.591,1.591,0,0,0-.373-.38l-.05-.046A1.581,1.581,0,0,0,59.362,0H16.734a9.071,9.071,0,0,0-9.04,7.255A8.9,8.9,0,0,0,0,15.86ZM26.966,40.052V32.716H82.683v7.336Zm58.889-1.3V34.144l3.539,2.3ZM61.268,5.714,74.422,19.233H63.388a2.072,2.072,0,0,1-2.12-2.032ZM16.734,3.172H58.1V17.2a5.247,5.247,0,0,0,5.292,5.2H76.734v7.138H25.459a1.734,1.734,0,0,0-1.665,1.675v.2l-4.721-.094h-.014a1.63,1.63,0,0,0-1.586,1.635l.05,6.9a1.586,1.586,0,0,0,1.586,1.573h4.685v.233a1.627,1.627,0,0,0,1.665,1.551H28.81L28.789,45.6a3.491,3.491,0,0,0,.947,2.444,2.936,2.936,0,0,0,2.055.926h19.26a1.586,1.586,0,1,0,0-3.172H31.967c0-.2-.005-.1-.005-.123l.022-2.454h44.75V82.487a5.775,5.775,0,0,1-5.966,5.55H16.734a5.831,5.831,0,0,1-6.027-5.55V8.967c0-.081.052-.163.052-.246a1.513,1.513,0,0,0,0-.205A5.806,5.806,0,0,1,16.734,3.172Zm7.059,35.1h-3.11l-.067-3.711,3.177.037ZM3.172,15.86a5.8,5.8,0,0,1,4.362-5.347V82.487a9,9,0,0,0,9.2,8.722h52.22a5.82,5.82,0,0,1-5.718,3.966H9.2a5.83,5.83,0,0,1-6.032-5.543Zm0,0" transform="translate(1280 846)" fill="#fff"/>
      </g>
    </g>
  </g>
</svg>
